<?xml version="1.0" standalone="no"?>
<!DOCTYPE svg PUBLIC "-//W3C//DTD SVG 20010904//EN"
 "http://www.w3.org/TR/2001/REC-SVG-20010904/DTD/svg10.dtd">
<svg version="1.0" xmlns="http://www.w3.org/2000/svg"
 width="632.000000pt" height="632.000000pt" viewBox="0 0 632.000000 632.000000"
 preserveAspectRatio="xMidYMid meet">
<metadata>
Created by potrace 1.11, written by Peter Selinger 2001-2013
</metadata>
<g transform="translate(0.000000,632.000000) scale(0.100000,-0.100000)"
fill="#000000" stroke="none">
<path d="M3145 6016 c-16 -7 -54 -39 -84 -70 l-54 -57 -91 25 c-162 46 -219
36 -348 -62 l-63 -49 -40 18 c-69 31 -88 26 -165 -46 -64 -60 -73 -65 -114
-65 -24 0 -73 9 -108 20 -34 11 -64 20 -65 20 -2 0 -3 -18 -3 -41 0 -41 -14
-78 -34 -91 -6 -4 -36 -8 -66 -8 -30 0 -60 -4 -67 -8 -6 -4 -13 -30 -15 -57
-3 -46 -5 -50 -31 -53 -17 -2 -53 11 -101 37 -133 74 -173 52 -135 -75 21 -72
21 -75 4 -94 -25 -27 -83 -26 -170 5 -38 14 -71 25 -71 25 -1 0 7 -17 17 -37
28 -54 25 -91 -7 -103 -14 -6 -38 -10 -53 -10 -44 0 -54 -20 -46 -94 7 -65 -4
-91 -28 -67 -22 22 -39 13 -32 -19 5 -25 3 -30 -12 -30 -32 0 -43 -21 -43 -81
0 -121 -37 -151 -212 -170 -57 -6 -106 -16 -109 -21 -3 -5 -9 -57 -12 -116 -7
-110 -33 -237 -62 -292 -9 -17 -44 -52 -77 -78 -155 -118 -167 -139 -143 -234
21 -79 14 -103 -36 -128 -51 -27 -79 -55 -79 -80 0 -12 29 -52 65 -90 42 -45
65 -78 65 -93 0 -30 -41 -69 -121 -115 -36 -21 -71 -50 -81 -68 -18 -31 -18
-32 6 -84 19 -41 22 -58 15 -83 -5 -18 -9 -49 -9 -70 0 -33 7 -45 55 -90 74
-70 81 -94 55 -195 -27 -108 -26 -123 15 -172 19 -23 35 -47 35 -54 0 -7 -13
-22 -30 -34 -52 -39 -33 -104 44 -147 10 -6 19 -26 23 -51 7 -51 -22 -86 -87
-104 -56 -15 -70 -26 -70 -54 0 -34 19 -46 71 -46 56 0 66 -16 49 -79 -14 -51
-6 -66 62 -122 69 -57 77 -68 78 -105 0 -33 20 -56 83 -93 45 -28 57 -48 57
-99 0 -28 -7 -47 -25 -66 -29 -31 -31 -53 -9 -84 11 -16 25 -22 55 -22 66 0
66 -51 -1 -124 -50 -54 -52 -81 -6 -103 26 -12 39 -28 52 -62 23 -64 28 -68
83 -75 56 -7 63 -18 44 -63 -19 -46 -16 -66 12 -93 22 -20 38 -24 154 -31 71
-4 140 -13 153 -20 40 -20 67 -50 74 -82 5 -25 2 -34 -17 -48 -20 -15 -22 -22
-13 -36 15 -25 72 -28 148 -9 116 29 149 15 162 -71 3 -26 10 -56 15 -65 14
-27 60 -30 129 -8 36 11 77 20 92 20 34 0 58 -33 58 -82 0 -52 20 -69 66 -56
49 13 64 5 64 -35 0 -19 7 -40 15 -47 13 -11 23 -8 62 19 53 37 77 37 81 -2 5
-41 30 -49 81 -26 24 10 50 19 57 19 15 0 28 -26 38 -71 9 -42 33 -43 91 -4
44 31 55 34 78 26 14 -6 34 -19 44 -29 121 -129 125 -132 159 -132 38 0 50 16
60 79 4 23 15 52 24 64 25 30 43 12 64 -63 21 -75 48 -87 97 -46 48 41 70 32
95 -38 11 -32 28 -63 38 -68 22 -12 71 -1 88 19 31 38 112 93 135 93 16 0 42
-15 69 -40 75 -69 114 -50 114 53 0 74 18 94 100 113 146 34 205 15 256 -80
35 -65 50 -79 75 -66 12 7 18 28 21 75 6 70 19 95 49 95 27 0 161 47 248 86
41 19 80 34 87 34 7 0 32 -25 54 -56 31 -41 47 -54 62 -52 27 4 36 21 43 89 5
45 13 65 40 97 48 55 76 60 128 22 69 -51 99 -37 73 36 -16 45 -12 58 21 68
14 4 26 18 29 34 7 29 22 52 34 52 4 0 27 -16 51 -35 24 -19 52 -35 61 -35 22
0 48 38 48 71 0 86 22 108 123 123 64 10 71 26 63 140 -4 53 -3 97 3 105 6 10
24 14 55 12 l46 -2 0 40 c0 39 1 40 28 35 22 -4 36 0 58 19 32 28 33 35 23
249 -2 60 0 101 6 107 8 8 35 6 89 -4 146 -28 236 -15 250 37 3 13 -2 59 -11
103 -21 105 -15 131 36 145 49 13 59 37 36 96 -9 24 -15 56 -13 71 3 24 9 29
42 34 69 11 73 46 16 153 -62 117 -53 166 32 166 18 0 50 5 70 11 58 16 61 47
9 119 -51 73 -52 100 -6 151 39 43 42 66 20 129 -8 23 -15 59 -15 80 0 35 3
39 41 54 50 20 47 40 -7 44 -67 4 -83 11 -99 43 -20 37 -13 59 36 122 54 68
52 83 -22 120 -60 30 -60 47 1 85 73 45 66 85 -30 176 -66 62 -76 80 -85 141
-3 28 -13 69 -20 92 -11 33 -12 53 -3 102 11 58 10 62 -12 86 -12 13 -51 34
-86 45 -66 22 -118 68 -112 98 2 9 20 20 41 25 51 12 45 35 -16 64 -26 13 -47
29 -47 37 0 8 18 29 40 46 63 50 49 81 -28 61 -81 -22 -98 9 -80 149 10 88 10
100 -5 124 -20 30 -36 32 -101 10 -44 -15 -49 -15 -64 0 -15 15 -15 21 6 79
43 120 24 147 -70 97 -32 -16 -65 -30 -73 -30 -26 0 -38 42 -27 94 10 46 10
46 -18 46 -45 0 -53 20 -45 108 6 66 4 81 -10 95 -23 24 -41 21 -101 -13 -45
-25 -54 -27 -64 -15 -7 8 -18 15 -25 15 -8 0 -15 22 -19 59 -4 34 -15 70 -25
82 -17 21 -20 21 -68 9 -28 -7 -57 -11 -65 -7 -9 3 -20 25 -26 50 l-12 44 -74
5 c-48 3 -85 12 -107 24 -33 19 -34 23 -37 86 -4 102 -37 111 -109 30 l-33
-37 -47 26 c-39 21 -55 39 -89 100 -63 114 -101 127 -250 88 -127 -34 -116
-37 -148 32 -37 78 -86 129 -127 129 -24 0 -42 -12 -87 -59 -66 -68 -103 -81
-187 -62 -62 14 -81 30 -129 109 -19 32 -47 64 -61 70 -14 7 -27 12 -28 12 -1
-1 -15 -7 -32 -14z m-167 -446 c22 -73 33 -89 77 -110 32 -15 62 -20 127 -20
82 0 88 2 107 26 12 15 21 34 21 44 0 36 22 80 40 80 10 0 34 -20 54 -45 48
-58 78 -59 160 -9 49 31 63 35 85 28 22 -8 27 -17 32 -61 4 -28 10 -56 13 -62
10 -16 40 -14 81 6 42 20 55 10 55 -44 0 -102 61 -112 99 -16 7 18 20 38 28
44 21 18 59 -14 102 -86 20 -32 48 -67 63 -78 l28 -21 49 23 c27 13 54 20 60
17 6 -4 11 -25 11 -46 0 -49 22 -64 71 -50 53 16 59 13 59 -24 0 -43 25 -54
69 -32 17 9 39 16 50 16 17 0 20 -5 15 -30 -9 -41 10 -60 57 -60 l39 0 0 -55
c0 -76 20 -89 124 -79 96 9 106 2 106 -76 0 -83 15 -94 142 -98 76 -3 101 -7
105 -19 3 -8 -3 -21 -16 -29 -26 -19 -27 -49 -1 -91 25 -41 59 -59 168 -84 90
-20 132 -45 132 -76 0 -8 -9 -31 -21 -50 -24 -39 -16 -58 31 -68 36 -8 46 -21
56 -70 4 -25 19 -51 38 -69 l31 -29 -30 -21 c-49 -35 -85 -77 -85 -100 0 -26
18 -46 41 -46 19 0 49 -25 49 -41 0 -6 -14 -23 -31 -39 -23 -21 -32 -39 -36
-72 -5 -43 -3 -47 45 -95 46 -46 51 -54 45 -85 -4 -30 1 -42 41 -91 53 -65 56
-76 37 -134 -16 -48 -5 -73 31 -73 28 0 58 -18 58 -35 0 -20 -32 -35 -75 -35
-50 0 -71 -14 -84 -53 -14 -40 -7 -61 31 -105 15 -18 28 -37 28 -42 0 -22 -15
-42 -41 -56 -34 -17 -36 -38 -9 -79 27 -40 25 -59 -11 -135 -41 -88 -41 -127
5 -188 40 -56 43 -77 20 -139 -14 -36 -15 -50 -5 -83 19 -63 5 -78 -113 -121
-32 -12 -67 -30 -77 -40 -27 -27 -23 -70 9 -115 67 -92 66 -115 -9 -139 -66
-22 -83 -48 -74 -117 9 -71 -11 -96 -124 -152 -47 -24 -96 -55 -108 -67 -33
-36 -77 -138 -109 -250 l-29 -100 -40 7 c-64 11 -171 8 -204 -5 -29 -13 -38
-28 -63 -111 -11 -38 -17 -46 -40 -48 -23 -3 -28 -8 -28 -30 0 -24 -1 -25 -14
-7 -22 30 -46 3 -46 -50 0 -69 -5 -75 -66 -75 -62 0 -80 -19 -70 -75 l7 -34
-53 30 c-65 35 -132 40 -148 9 -6 -12 -8 -45 -4 -83 5 -50 3 -65 -9 -75 -13
-11 -21 -10 -46 2 -16 9 -33 21 -36 27 -16 24 -90 69 -116 69 -29 0 -32 -5
-41 -65 -3 -18 -10 -20 -67 -17 -49 2 -68 -1 -82 -14 -11 -9 -19 -21 -19 -25
0 -4 -4 -19 -9 -32 l-9 -24 -59 28 c-81 40 -115 38 -188 -11 -33 -22 -66 -40
-74 -40 -8 0 -34 11 -58 25 l-43 26 -77 -38 c-110 -54 -160 -53 -278 6 -56 28
-93 40 -100 35 -41 -32 -114 -76 -133 -81 -32 -8 -56 17 -81 87 -26 71 -62
103 -131 120 -63 15 -84 10 -143 -35 -81 -62 -120 -38 -157 99 l-17 61 -39 -5
c-22 -3 -74 -5 -116 -5 -67 0 -80 3 -102 24 -15 15 -33 49 -43 84 -12 45 -27
71 -56 99 -43 42 -58 46 -78 22 -14 -18 -62 -44 -80 -44 -12 0 -8 66 7 103 10
27 -46 72 -115 91 -57 16 -60 18 -66 56 -9 51 -26 64 -73 57 -58 -10 -66 1
-60 77 5 51 3 66 -8 66 -7 0 -18 8 -23 19 -10 18 -12 18 -63 0 -36 -12 -58
-14 -70 -8 -22 12 -23 29 -1 88 19 55 12 97 -18 106 -14 5 -18 12 -14 23 4 10
9 33 12 54 7 50 -18 64 -77 43 -54 -19 -90 -19 -90 -1 0 8 14 37 31 64 18 29
29 60 27 73 -3 22 -9 24 -67 29 -87 7 -91 16 -57 119 14 45 26 90 26 100 0 35
-26 55 -81 61 l-54 6 43 22 c60 32 63 49 19 86 -20 17 -37 34 -37 38 0 4 15 8
32 10 22 2 34 9 36 21 8 43 -9 68 -77 111 -37 24 -71 51 -74 60 -4 9 2 38 12
64 15 39 17 63 12 148 -6 98 -7 103 -48 161 -55 78 -62 106 -32 127 13 9 31
16 40 16 23 0 51 34 43 53 -3 9 -21 26 -40 38 -19 11 -34 27 -34 34 0 8 22 36
50 63 35 35 50 57 50 76 0 36 -41 76 -79 76 -44 0 -47 18 -6 26 46 8 54 29 48
119 l-5 71 36 27 c57 44 60 57 30 132 -14 36 -24 72 -21 80 5 10 27 15 84 17
74 3 78 4 91 31 12 25 11 37 -7 97 -24 77 -27 129 -8 131 6 1 24 0 38 -1 40
-2 53 22 46 89 -7 65 2 81 44 81 44 0 59 32 59 126 0 63 4 85 16 95 25 20 93
13 183 -21 45 -16 86 -30 90 -30 16 0 33 57 42 145 6 49 14 104 20 121 12 39
48 60 76 45 25 -13 43 3 43 37 0 15 5 22 13 19 72 -27 91 -10 100 92 3 40 11
78 17 85 5 8 39 16 75 18 36 3 71 11 78 17 8 6 19 30 26 53 14 46 28 68 43 68
5 0 26 -18 45 -40 43 -48 58 -50 81 -11 10 18 28 32 44 35 26 5 28 9 28 56 0
57 16 66 47 27 40 -51 78 -52 138 -4 24 19 38 41 46 72 12 47 31 71 49 60 6
-3 22 -29 35 -56 14 -27 31 -49 38 -49 6 0 62 9 122 20 61 11 136 22 168 26
64 6 66 9 87 92 15 57 40 54 58 -8z"/>
<path d="M2988 5330 c-948 -85 -1720 -742 -1953 -1659 -74 -291 -85 -639 -29
-929 130 -682 564 -1257 1180 -1565 440 -220 958 -285 1443 -181 406 87 800
301 1091 594 337 338 550 766 620 1243 22 149 27 416 10 557 -114 936 -795
1690 -1710 1894 -206 45 -459 63 -652 46z m454 -55 c107 -15 320 -60 345 -74
7 -4 -2 -18 -27 -38 l-38 -33 -96 46 c-102 48 -239 87 -358 102 l-73 9 67 2
c37 0 118 -6 180 -14z m400 -119 c35 -26 43 -102 8 -81 -7 4 -16 2 -20 -5 -6
-10 -15 -8 -39 9 -37 26 -40 54 -9 75 27 19 38 19 60 2z m273 -87 c670 -327
1119 -972 1195 -1718 56 -557 -120 -1136 -478 -1573 -73 -89 -234 -248 -322
-319 -366 -293 -862 -469 -1326 -469 -505 0 -934 326 -1060 805 -38 144 -44
341 -15 481 83 403 370 714 765 828 64 19 139 30 275 40 103 8 209 20 236 26
400 87 708 383 817 783 19 71 22 107 22 262 1 188 -6 231 -56 368 -11 32 -18
60 -15 63 9 9 154 -24 194 -45 66 -33 160 -138 205 -226 38 -76 40 -83 34
-146 -11 -118 -27 -152 -108 -232 -64 -62 -79 -82 -103 -147 -25 -66 -29 -95
-36 -240 -9 -181 -18 -241 -42 -268 -23 -25 -82 -156 -102 -227 -33 -116 -126
-171 -504 -300 -122 -41 -231 -80 -241 -85 -10 -5 -63 -16 -117 -25 -369 -55
-605 -158 -800 -350 -82 -82 -89 -102 -52 -179 24 -52 55 -83 88 -88 18 -2 28
-15 43 -56 11 -28 23 -52 28 -52 4 0 14 22 21 50 11 45 17 51 58 69 72 30 98
34 147 21 42 -12 84 -49 84 -74 0 -6 -14 -17 -31 -23 -17 -7 -28 -17 -24 -23
3 -5 3 -19 0 -30 -7 -23 -47 -27 -105 -10 -19 5 -38 6 -42 2 -5 -5 -14 -37
-22 -72 -11 -58 -16 -66 -50 -85 -72 -40 -102 -72 -116 -119 -23 -83 5 -212
51 -237 13 -6 55 -20 94 -30 l70 -18 39 40 c21 22 49 42 62 45 13 3 24 10 24
14 0 14 123 141 151 156 16 8 53 19 82 24 28 6 95 31 149 56 l96 47 174 -33
c206 -38 201 -37 193 -51 -4 -5 1 -19 10 -29 15 -17 16 -22 5 -36 -16 -18 -83
-54 -102 -54 -29 0 -118 -70 -124 -98 -3 -15 -16 -50 -30 -77 -31 -65 -33
-135 -4 -142 11 -3 20 -11 20 -18 0 -19 23 -25 134 -32 130 -8 194 10 227 63
12 19 32 42 45 51 13 8 45 43 70 76 35 48 62 70 126 106 88 49 185 132 216
184 11 18 23 49 26 70 6 29 23 54 80 110 84 82 138 162 201 295 25 50 47 92
50 92 3 0 19 -10 35 -21 l28 -22 30 22 c37 26 37 26 62 1 22 -22 72 -27 88 -7
6 6 14 25 18 41 4 18 16 31 34 37 15 6 34 24 43 44 9 19 21 35 25 35 24 0 33
57 26 167 l-7 113 46 69 c96 145 157 298 157 396 0 81 -16 149 -65 270 -40 98
-45 119 -45 188 0 96 -24 204 -61 278 -39 78 -143 172 -258 232 -50 27 -96 57
-101 68 -8 13 -7 50 1 123 l12 104 -33 58 c-72 130 -214 274 -315 320 -27 13
-111 40 -185 60 -74 20 -147 42 -161 50 -14 7 -52 41 -85 76 -45 49 -62 75
-71 113 -7 28 -15 60 -19 73 l-7 23 44 -17 c24 -9 107 -47 184 -85z m-21 -275
c17 -16 22 -54 8 -54 -8 0 -42 52 -42 64 0 11 19 6 34 -10z m131 -35 c12 -18
-4 -61 -22 -57 -26 5 -39 34 -24 52 15 18 37 21 46 5z m149 -21 c52 -48 35
-106 -28 -94 -56 11 -84 67 -50 100 22 22 49 20 78 -6z m164 -94 c31 -22 26
-63 -10 -84 -21 -11 -32 -12 -45 -4 -26 16 -28 59 -4 83 25 25 30 26 59 5z
m112 -133 c24 -45 2 -81 -49 -81 -22 0 -41 27 -41 59 0 39 71 56 90 22z
m-1365 -36 c87 -39 143 -109 165 -206 39 -173 -102 -341 -286 -341 -250 -1
-380 305 -206 485 89 92 209 115 327 62z m1407 -100 c20 -44 -24 -71 -73 -45
-25 14 -24 35 3 54 32 23 57 20 70 -9z m26 -87 c31 -31 0 -108 -43 -108 -22 0
-65 41 -65 62 0 5 11 20 25 33 26 27 64 32 83 13z m154 -287 c90 -58 121 -90
155 -155 24 -46 25 -56 18 -138 -3 -49 -13 -101 -21 -116 -24 -46 -18 -79 16
-97 17 -9 30 -22 30 -31 0 -15 -96 -110 -133 -131 -53 -30 -92 -2 -82 58 6 37
4 42 -48 96 -61 66 -71 86 -57 114 16 29 63 24 111 -11 33 -23 45 -27 60 -19
28 15 24 25 -31 78 -53 52 -64 88 -36 126 12 17 17 18 41 7 77 -35 52 71 -31
134 -156 118 -149 188 8 85z m-367 -208 c-8 -46 -40 -83 -72 -83 -29 0 -65 34
-57 55 7 18 90 64 118 65 16 0 17 -5 11 -37z m-47 -255 c5 -42 -53 -71 -82
-42 -40 40 12 111 59 80 11 -7 21 -24 23 -38z m380 -208 c49 -65 58 -67 141
-31 76 34 99 32 121 -9 21 -39 11 -58 -50 -100 -62 -42 -80 -64 -80 -100 0
-19 4 -21 28 -17 15 2 41 11 59 18 45 18 65 0 61 -55 -3 -38 -7 -43 -48 -62
-73 -35 -91 -75 -43 -99 32 -17 53 -36 53 -51 0 -19 -45 -46 -88 -53 -47 -8
-62 -43 -43 -98 12 -33 12 -38 -5 -50 -20 -15 -72 -17 -94 -4 -18 12 -17 63 4
121 9 25 16 58 16 73 0 33 -25 97 -39 97 -14 0 -28 -55 -35 -134 -6 -80 -22
-108 -74 -135 -70 -36 -122 -112 -143 -212 -9 -40 -22 -62 -59 -101 -31 -32
-55 -49 -67 -46 -10 2 -30 26 -45 57 -35 69 -46 81 -72 81 -24 0 -88 54 -99
82 -9 25 14 38 55 32 33 -6 36 -4 46 25 12 33 3 73 -17 86 -16 9 -13 51 4 65
23 19 64 3 83 -32 22 -40 49 -68 65 -68 23 0 67 121 67 183 0 16 -9 40 -20 54
-48 61 1 123 59 76 12 -10 27 -40 34 -68 10 -40 17 -51 35 -53 35 -5 55 16 49
52 -26 171 -38 211 -73 268 -33 54 -35 61 -21 75 22 23 68 19 89 -7 10 -12 22
-41 28 -63 23 -93 51 -115 100 -78 27 19 28 19 44 2 9 -10 19 -41 23 -70 9
-74 26 -64 19 12 -4 34 -6 80 -6 101 0 61 -22 86 -74 86 -50 0 -95 31 -121 81
-21 40 -19 66 10 95 39 39 81 30 123 -26z m-464 10 c35 -13 34 -46 -4 -98 -47
-65 -90 -53 -90 25 0 30 6 49 20 63 22 22 37 24 74 10z m-245 -667 c17 -15 23
-35 31 -108 6 -49 15 -111 21 -138 10 -44 16 -50 74 -85 56 -33 66 -43 85 -92
13 -30 33 -72 46 -92 26 -41 32 -115 14 -162 -11 -31 -30 -34 -30 -6 0 10 -14
35 -31 55 -24 27 -39 35 -66 35 -37 0 -93 24 -93 41 0 18 -51 78 -85 99 -26
16 -38 18 -58 11 -60 -23 -50 -74 22 -111 63 -32 63 -71 1 -84 -24 -4 -32 -12
-36 -36 -5 -20 -12 -30 -25 -30 -20 0 -23 -10 -37 -95 -5 -34 -12 -50 -22 -50
-8 0 -21 -8 -28 -17 -17 -24 -110 -26 -118 -3 -8 19 13 45 36 45 22 0 31 21
22 53 l-7 26 -42 -29 c-65 -45 -101 -61 -108 -50 -8 13 7 39 39 69 14 14 26
30 26 38 0 24 -54 14 -90 -17 -39 -33 -73 -37 -127 -15 -19 8 -44 15 -54 15
-24 0 -25 39 -4 100 8 23 15 57 15 74 0 17 5 38 11 46 9 13 12 13 22 -3 35
-54 35 -54 46 -24 6 16 11 41 11 56 0 16 10 37 25 51 28 26 31 50 11 83 -8 12
-17 38 -20 58 -7 40 -28 64 -48 56 -9 -3 -13 -30 -13 -87 1 -74 -2 -86 -23
-107 -12 -13 -32 -23 -43 -23 -12 0 -23 -10 -30 -27 -5 -15 -19 -33 -29 -40
-20 -14 -28 -67 -12 -77 16 -10 -22 -104 -46 -115 -33 -15 -67 -14 -82 4 -11
13 -9 19 7 38 38 41 45 64 29 94 -31 60 -130 134 -157 117 -16 -9 -10 -32 12
-48 18 -12 20 -21 14 -53 -15 -84 -45 -94 -45 -15 0 36 -5 52 -21 65 -13 12
-18 24 -14 37 10 31 -12 60 -45 60 -26 0 -33 -6 -46 -40 -20 -50 -37 -51 -111
-9 -49 28 -61 31 -110 26 -64 -7 -83 -20 -83 -56 0 -37 -26 -71 -55 -71 -32 0
-105 50 -105 72 0 22 32 55 65 68 33 12 31 25 -5 52 -16 12 -30 27 -30 34 0
22 86 88 179 137 85 45 96 48 140 42 39 -5 49 -3 54 9 4 9 13 16 21 16 8 0 17
8 21 18 3 11 17 24 32 31 23 11 29 9 55 -16 20 -19 28 -35 25 -50 -7 -37 19
-50 58 -29 34 19 66 19 72 0 2 -6 -15 -29 -37 -51 -43 -45 -47 -59 -27 -88 21
-28 58 -12 96 40 37 52 51 116 30 141 -7 8 -34 27 -61 40 -78 39 -54 73 40 59
60 -9 98 -29 146 -76 32 -33 36 -42 26 -54 -18 -21 14 -55 51 -55 35 0 46 16
25 39 -21 23 -20 31 2 31 40 1 45 15 21 57 l-22 39 24 33 c22 30 27 32 64 26
22 -3 57 -10 78 -16 l38 -10 -3 -77 c-3 -74 -2 -77 25 -90 43 -21 78 1 92 58
8 34 17 47 37 54 52 18 58 7 58 -108 l0 -105 30 -16 c40 -21 57 -19 85 10 32
31 32 70 0 133 -33 67 -35 144 -3 166 29 21 51 20 77 -1z m861 -103 c6 -11 10
-48 8 -83 l-3 -62 -34 -5 c-29 -4 -36 -10 -43 -37 -12 -47 -28 -51 -58 -15
-34 41 -46 40 -60 -3 -23 -69 -82 -51 -132 42 -23 43 -25 53 -14 74 14 30 45
35 85 15 50 -26 75 -20 148 39 37 30 73 55 80 55 7 0 17 -9 23 -20z m-730
-587 c36 -41 37 -50 5 -113 -29 -56 -31 -70 -11 -70 29 0 40 -28 27 -69 -15
-53 -81 -116 -163 -157 -46 -23 -72 -44 -83 -64 -9 -17 -24 -30 -35 -30 -12 0
-20 -8 -22 -22 -2 -15 -9 -22 -20 -20 -13 2 -18 -9 -25 -50 -6 -38 -13 -54
-26 -56 -10 -2 -29 -15 -43 -29 -32 -32 -48 -25 -52 23 -2 21 -7 43 -12 48
-16 16 -40 -15 -40 -49 0 -43 -22 -62 -55 -47 -20 9 -25 19 -25 46 0 60 -41
57 -53 -3 -8 -40 -44 -51 -69 -21 -10 12 -18 28 -18 35 0 19 39 64 70 80 16 8
37 31 46 50 19 41 79 87 142 112 39 14 50 15 91 3 88 -25 98 -24 117 5 l18 28
-42 37 c-46 41 -54 73 -23 90 35 18 55 11 92 -31 33 -39 36 -40 52 -24 10 10
17 32 17 55 0 36 -5 44 -52 81 -29 23 -54 45 -56 49 -1 4 11 13 27 20 17 6 57
41 89 75 68 73 83 75 132 18z m-1173 -27 c24 -21 26 -27 18 -52 -7 -21 -18
-30 -37 -32 -52 -6 -93 72 -50 97 26 16 38 13 69 -13z m-123 -46 c14 -5 30
-19 36 -30 10 -19 6 -26 -31 -62 -55 -52 -98 -78 -118 -71 -31 11 -61 47 -61
72 1 33 16 53 60 80 38 23 74 26 114 11z m301 -62 c51 -23 21 -69 -61 -94 -63
-19 -71 -18 -90 11 -20 31 -11 73 19 85 32 13 102 12 132 -2z m-181 -59 c16
-48 -10 -79 -108 -129 -89 -44 -90 -46 -101 -93 -13 -51 -38 -78 -70 -74 -15
1 -21 11 -23 40 -3 35 -5 37 -37 37 -61 0 -89 40 -86 123 2 61 70 84 148 52
65 -28 99 -20 146 30 37 42 45 46 81 43 33 -2 42 -8 50 -29z"/>
<path d="M3340 2440 c-14 -27 -15 -107 -1 -142 14 -36 47 -37 63 -3 9 20 8 28
-4 42 -27 31 -31 70 -9 92 16 16 17 20 4 25 -27 11 -42 6 -53 -14z"/>
<path d="M3738 2425 c-10 -21 -6 -32 25 -84 25 -40 37 -71 37 -96 0 -46 -43
-134 -92 -190 -40 -45 -45 -59 -27 -70 25 -16 139 89 139 128 0 19 56 67 78
67 41 1 45 15 17 71 -52 102 -129 199 -160 199 -3 0 -11 -11 -17 -25z"/>
<path d="M2762 2397 c-40 -41 -44 -71 -8 -57 14 5 40 7 58 4 24 -4 38 -1 47
10 16 19 7 32 -37 58 -29 17 -29 17 -60 -15z"/>
<path d="M3045 2360 c-3 -11 -18 -23 -33 -26 -46 -10 -52 -13 -59 -29 -9 -26
13 -41 34 -23 10 8 37 20 59 26 47 14 61 34 38 57 -21 20 -31 19 -39 -5z"/>
</g>
</svg>
