<?xml version="1.0" encoding="UTF-8" standalone="no"?>
<!-- Created with Inkscape (http://www.inkscape.org/) -->

<svg
   xmlns:dc="http://purl.org/dc/elements/1.1/"
   xmlns:cc="http://creativecommons.org/ns#"
   xmlns:rdf="http://www.w3.org/1999/02/22-rdf-syntax-ns#"
   xmlns:svg="http://www.w3.org/2000/svg"
   xmlns="http://www.w3.org/2000/svg"
   xmlns:sodipodi="http://sodipodi.sourceforge.net/DTD/sodipodi-0.dtd"
   xmlns:inkscape="http://www.inkscape.org/namespaces/inkscape"
   version="1.1"
   id="svg4485"
   width="151"
   height="158"
   viewBox="0 0 151 158"
   sodipodi:docname="logo.svg"
   inkscape:version="0.92.1 r15371"
   inkscape:export-filename="F:\logo128x128.png"
   inkscape:export-xdpi="85.080002"
   inkscape:export-ydpi="85.080002">
  <metadata
     id="metadata4491">
    <rdf:RDF>
      <cc:Work
         rdf:about="">
        <dc:format>image/svg+xml</dc:format>
        <dc:type
           rdf:resource="http://purl.org/dc/dcmitype/StillImage" />
        <dc:title />
      </cc:Work>
    </rdf:RDF>
  </metadata>
  <defs
     id="defs4489">
    <inkscape:path-effect
       effect="bspline"
       id="path-effect4529"
       is_visible="true"
       weight="33.333333"
       steps="2"
       helper_size="0"
       apply_no_weight="true"
       apply_with_weight="true"
       only_selected="false" />
  </defs>
  <sodipodi:namedview
     pagecolor="#ffffff"
     bordercolor="#666666"
     borderopacity="1"
     objecttolerance="10"
     gridtolerance="10"
     guidetolerance="10"
     inkscape:pageopacity="0"
     inkscape:pageshadow="2"
     inkscape:window-width="1920"
     inkscape:window-height="1017"
     id="namedview4487"
     showgrid="false"
     showguides="false"
     inkscape:zoom="2.0000001"
     inkscape:cx="-92.857099"
     inkscape:cy="125.39263"
     inkscape:window-x="1272"
     inkscape:window-y="-8"
     inkscape:window-maximized="1"
     inkscape:current-layer="g4512" />
  <g
     inkscape:groupmode="layer"
     id="layer1"
     inkscape:label="Rond noir">
    <path
       style="opacity:1;fill:#000000;fill-opacity:1;fill-rule:evenodd;stroke:#000000;stroke-width:0.4;stroke-linecap:round;stroke-linejoin:round;stroke-miterlimit:4;stroke-dasharray:none;stroke-dashoffset:0;stroke-opacity:1;paint-order:stroke markers fill"
       d="M 76.117188 7.4140625 C 74.250948 7.2650837 71.746094 10.939453 71.746094 10.939453 C 71.746094 10.939453 66.950019 9.0579465 64.552734 9.5292969 C 62.45457 9.9418329 59.193359 13.054688 59.193359 13.054688 C 59.193359 13.054688 57.258713 11.894284 56.232422 12.066406 C 54.479807 12.360341 53.731833 14.903649 52.001953 15.310547 C 50.32368 15.705304 46.923828 14.324219 46.923828 14.324219 C 46.923828 14.324219 46.983693 16.691109 46.21875 17.425781 C 45.287739 18.319952 43.291231 17.18562 42.412109 18.130859 C 41.832278 18.754297 42.829144 20.185624 42.128906 20.669922 C 40.253402 21.967061 37.283789 17.555443 35.501953 18.978516 C 34.142331 20.064382 36.952771 23.050297 35.642578 24.195312 C 34.100439 25.54303 29.578125 23.208984 29.578125 23.208984 C 29.578125 23.208984 31.090015 25.452548 30.564453 26.453125 C 30.059764 27.413965 28.134325 26.586753 27.462891 27.439453 C 26.646489 28.476254 28.35598 30.790499 27.179688 31.388672 C 26.784371 31.589701 26.431364 30.452666 26.052734 30.683594 C 25.569448 30.978352 26.193359 32.375 26.193359 32.375 C 26.193359 32.375 25.359265 32.141501 25.064453 32.375 C 23.777265 33.394474 25.111873 36.024305 23.935547 37.169922 C 22.112564 38.945311 16.460938 38.722656 16.460938 38.722656 C 16.460938 38.722656 16.375269 46.021054 14.769531 49.158203 C 13.527574 51.584622 9.9068006 52.37573 8.9863281 54.941406 C 8.4919058 56.319531 9.9545713 57.953347 9.4101562 59.3125 C 8.9020257 60.581061 6.4953406 60.638737 6.3066406 61.992188 C 6.0347659 63.942161 9.7777176 64.972021 9.5507812 66.927734 C 9.2671501 69.372097 4.7302478 69.604817 4.1914062 72.005859 C 3.9925971 72.891747 5.0704728 73.643593 5.1796875 74.544922 C 5.3108693 75.627403 4.4576626 76.738276 4.7558594 77.787109 C 5.2036172 79.361982 7.3985972 80.024589 7.859375 81.595703 C 8.445242 83.593337 6.6377383 85.784115 7.1542969 87.800781 C 7.3970288 88.748411 8.9546922 89.227086 8.8457031 90.199219 C 8.7752326 90.827741 7.672096 90.882192 7.4355469 91.46875 C 7.1887645 92.080684 7.2667715 92.858624 7.5761719 93.441406 C 7.9686566 94.180677 9.2048143 94.231992 9.5507812 94.994141 C 9.9204866 95.808592 9.9062483 96.929577 9.4101562 97.673828 C 8.6871051 98.758574 6.5169699 98.225147 5.8847656 99.365234 C 5.6783182 99.737522 5.7377091 100.321 6.0253906 100.63477 C 6.6733566 101.34152 8.2548154 100.4441 8.8457031 101.19922 C 9.483718 102.01456 8.3307131 103.33554 8.7050781 104.30078 C 9.3060863 105.85038 11.525493 106.32296 12.230469 107.82812 C 12.450701 108.29835 12.128779 108.91967 12.371094 109.37891 C 13.025558 110.6193 14.980638 110.80792 15.615234 112.05859 C 15.977482 112.7725 15.998545 113.69219 15.755859 114.45508 C 15.573353 115.02878 14.751017 115.27768 14.628906 115.86719 C 14.520188 116.39205 14.665168 117.04568 15.050781 117.41797 C 15.641432 117.9881 16.986388 117.30431 17.449219 117.98242 C 17.824013 118.53154 17.41783 119.34174 17.166016 119.95703 C 16.745776 120.98385 15.00141 121.54397 15.193359 122.63672 C 15.310663 123.30449 16.436072 123.25539 16.884766 123.76367 C 17.580446 124.55172 17.466368 125.93707 18.294922 126.58398 C 18.978157 127.11741 20.357524 126.42429 20.833984 127.14844 C 21.386376 127.98798 19.728229 129.2646 20.269531 130.11133 C 21.939929 132.7243 26.82923 130.48617 29.294922 132.36719 C 29.981056 132.89063 30.606873 133.7611 30.564453 134.62305 C 30.536247 135.19619 29.323152 135.51912 29.578125 136.0332 C 30.644267 138.1827 34.827439 134.90741 36.769531 136.31641 C 37.865108 137.11126 37.042501 139.38897 38.179688 140.12305 C 39.882163 141.22202 42.574983 138.55224 44.244141 139.70117 C 45.175171 140.342 44.306003 142.29597 45.232422 142.94336 C 45.927097 143.42881 47.075003 142.31987 47.771484 142.80273 C 48.419101 143.25171 47.759898 144.73284 48.476562 145.06055 C 49.548797 145.55086 50.631318 143.19479 51.71875 143.65039 C 52.322702 143.90342 51.847573 145.17151 52.423828 145.48242 C 53.397621 146.00783 54.669974 144.2995 55.667969 144.77734 C 56.521265 145.1859 56.039976 147.01723 56.9375 147.31641 C 58.034464 147.68207 58.887774 145.68152 60.041016 145.76562 C 62.499295 145.9448 63.708364 150.56979 66.105469 149.99609 C 67.557732 149.64852 66.727609 146.07038 68.220703 146.04688 C 69.631627 146.02467 69.034545 149.16739 70.335938 149.71289 C 71.545242 150.2198 72.235954 147.76659 73.396484 148.37695 C 74.370481 148.88921 74.005326 151.49574 75.271484 151.83008 C 77.680469 152.46617 78.379701 148.90545 80.871094 148.87695 C 82.072309 148.8632 83.153325 151.48455 84.421875 150.96094 C 85.807649 150.38896 84.75578 147.87245 85.566406 146.61133 C 85.927684 146.04928 87.42495 145.92721 88.066406 145.74023 C 89.975351 145.18383 91.303024 145.08094 93.041016 146.04688 C 94.356557 146.77802 94.381594 149.83653 95.863281 149.57227 C 97.326735 149.31125 95.810569 145.60638 97.273438 145.3418 C 99.759687 144.89213 103.16757 143.54269 105.73438 142.23828 C 107.05035 141.56952 107.8569 145.37732 109.25977 144.91797 C 110.51787 144.50602 109.66091 142.21716 110.38867 141.11133 C 110.99421 140.19122 111.83738 139.15231 112.92773 138.99609 C 114.09483 138.82887 115.21767 141.09877 116.17188 140.40625 C 116.97446 139.82376 115.38836 138.29959 115.88867 137.44336 C 116.12225 137.0436 116.83928 137.2165 117.1582 136.88086 C 117.60923 136.40619 117.33941 135.43967 117.86328 135.04688 C 118.76908 134.36769 120.18847 137.13542 121.34766 136.60938 C 122.56011 136.05917 121.99648 134.01627 122.51758 132.79102 C 122.70701 132.34563 123.40836 132.424 123.82031 132.16992 C 124.78142 131.57712 125.98933 132.12043 126.60742 131.37891 C 127.87733 129.8554 125.7468 126.83649 127.17188 125.45703 C 127.71337 124.93287 128.89102 125.84351 129.42773 125.31445 C 129.86424 124.88416 129.07112 123.84081 129.56836 123.48242 C 129.88285 123.25576 130.33706 123.90695 130.69727 123.76367 C 134.11987 122.40217 131.23813 118.20847 132.24805 114.17383 C 132.45328 113.35394 138.51614 115.97803 140.42773 114.0332 C 141.91065 112.5245 139.29136 109.46989 140.42773 107.68555 C 140.84574 107.02918 142.16935 107.38182 142.54297 106.69922 C 143.22611 105.45114 141.21547 103.66839 141.98047 102.46875 C 142.40418 101.8043 143.84897 102.44992 144.23633 101.76367 C 145.40209 99.698382 141.40646 96.935049 142.54297 94.853516 C 143.30529 93.457337 146.40911 94.753757 147.05664 93.300781 C 147.74262 91.761537 144.89346 90.321081 145.08203 88.646484 C 145.19883 87.609238 146.66609 87.122812 146.91602 86.109375 C 147.314 84.495654 145.51991 82.683485 146.21094 81.171875 C 146.53624 80.460294 148.33451 80.670443 148.18555 79.902344 C 147.99421 78.915757 146.0332 79.933976 145.22266 79.339844 C 144.66285 78.929496 144.23708 78.19996 144.23633 77.505859 C 144.23474 76.012583 146.65605 75.018544 146.35156 73.556641 C 146.11951 72.442547 143.70507 72.578925 143.67188 71.441406 C 143.63884 70.309726 146.08582 70.310773 146.21094 69.185547 C 146.46037 66.94238 143.07765 65.789892 142.26172 63.685547 C 141.97066 62.935281 142.15563 62.072504 141.98047 61.287109 C 141.81868 60.561631 141.36389 59.909892 141.27539 59.171875 C 141.14064 58.047761 142.0885 56.786568 141.55664 55.787109 C 140.6965 54.170728 137.87431 54.561616 136.76172 53.107422 C 136.40832 52.6456 136.06972 51.930022 136.33789 51.414062 C 136.63986 50.833071 138.06515 51.355002 138.17188 50.708984 C 138.35148 49.622235 135.71711 49.692016 135.63281 48.59375 C 135.55131 47.53107 138.16612 47.177648 137.74805 46.197266 C 137.30509 45.158538 135.19046 46.82536 134.36328 46.056641 C 132.56072 44.381485 135.41388 40.290902 133.51758 38.722656 C 132.53677 37.911524 130.5928 39.921636 129.71094 39.003906 C 128.56348 37.809782 131.52283 35.155383 130.27344 34.068359 C 129.13798 33.080455 127.09215 36.119004 125.90234 35.197266 C 125.01042 34.5063 125.90234 31.8125 125.90234 31.8125 C 125.90234 31.8125 124.72665 32.028984 124.35156 31.669922 C 123.08366 30.456198 125.16265 27.337382 123.64648 26.453125 C 122.55305 25.815426 120.11914 27.863281 120.11914 27.863281 C 120.11914 27.863281 119.70963 27.31031 119.41406 27.158203 C 119.1598 27.027322 118.56836 27.015625 118.56836 27.015625 C 118.56836 27.015625 118.89054 23.990684 117.86328 23.208984 C 116.99958 22.551754 115.53147 24.078083 114.61914 23.490234 C 113.90672 23.0312 113.77344 21.09375 113.77344 21.09375 C 113.77344 21.09375 109.68909 21.27135 108.41406 19.964844 C 107.51248 19.041005 108.91869 16.606724 107.70898 16.15625 C 106.58061 15.736071 104.88867 18.414062 104.88867 18.414062 C 104.88867 18.414062 103.27845 17.823992 102.63281 17.285156 C 101.18911 16.080283 100.99806 13.459532 99.248047 12.771484 C 97.025369 11.897602 92.195312 14.041016 92.195312 14.041016 C 92.195312 14.041016 90.483699 9.2582624 88.388672 8.9648438 C 86.694004 8.7274968 85.945149 11.599656 84.298828 12.066406 C 82.890217 12.465763 81.232984 12.303995 79.925781 11.644531 C 78.231757 10.789926 78.008555 7.5650473 76.117188 7.4140625 z "
       id="path4496" />
  </g>
  <g
     inkscape:groupmode="layer"
     id="layer2"
     inkscape:label="Rond rouge">
    <path
       inkscape:connector-curvature="0"
       style="opacity:1;fill:#c30000;fill-opacity:1;fill-rule:evenodd;stroke:#000000;stroke-width:0.3485238;stroke-linecap:round;stroke-linejoin:round;stroke-miterlimit:4;stroke-dasharray:none;stroke-dashoffset:0;stroke-opacity:1;paint-order:stroke markers fill"
       d="m 63.323555,142.11331 c 1.571143,0.43873 4.326205,-2.28573 4.326205,-2.28573 0,0 3.787707,2.40911 5.916473,2.40591 1.86315,-0.003 5.171376,-2.12088 5.171376,-2.12088 0,0 1.460924,1.31509 2.367312,1.3391 1.547855,0.041 2.611772,-2.00926 4.159028,-2.06867 1.501095,-0.0576 4.178241,1.69059 4.178241,1.69059 0,0 0.343626,-2.03414 1.120356,-2.53481 0.945353,-0.60939 2.463529,0.69373 3.373026,0.032 0.599864,-0.43645 -0.01388,-1.82679 0.665741,-2.12415 1.820292,-0.79645 3.623972,3.4717 5.385167,2.55193 1.34388,-0.70183 -0.56149,-3.72417 0.74997,-4.48481 1.54364,-0.89532 5.02174,1.85512 5.02174,1.85512 0,0 -0.9187,-2.17087 -0.30234,-2.9389 0.5919,-0.73751 2.10052,0.29111 2.81696,-0.32611 0.87115,-0.75049 -0.20476,-3.01478 0.90098,-3.3301 0.3716,-0.10598 0.48383,0.92529 0.84615,0.79096 0.46246,-0.17146 0.16188,-1.46994 0.16188,-1.46994 0,0 0.67436,0.33883 0.96543,0.18832 1.27085,-0.65713 0.5682,-3.12877 1.76529,-3.91226 1.85515,-1.2142 6.65125,-0.081 6.65125,-0.081 0,0 1.29075,-6.22725 3.18725,-8.64226 1.46687,-1.86788 4.69528,-1.94043 5.91046,-3.98103 0.65271,-1.09609 -0.32561,-2.73731 0.36669,-3.80883 0.64618,-1.0001 2.71397,-0.64796 3.10111,-1.77394 0.55779,-1.62226 -2.47136,-3.12736 -1.95105,-4.76201 0.65031,-2.04308 4.56906,-1.48529 5.4304,-3.448757 0.31779,-0.724441 -0.47857,-1.547218 -0.42163,-2.336246 0.0684,-0.947612 0.98335,-1.755295 0.90329,-2.701992 -0.12021,-1.421512 -1.88681,-2.354319 -2.01878,-3.774786 -0.16779,-1.806091 1.74341,-3.378113 1.63806,-5.188919 -0.0495,-0.850896 -1.30176,-1.520093 -1.04638,-2.333272 0.16514,-0.525748 1.11759,-0.388302 1.41773,-0.850463 0.31313,-0.482154 0.37618,-1.160455 0.2088,-1.710456 -0.21234,-0.697692 -1.26092,-0.947781 -1.42966,-1.657277 -0.1803,-0.758183 0.0188,-1.714467 0.56728,-2.268188 0.7993,-0.807053 2.56618,0.01114 3.29703,-0.858398 0.23866,-0.283941 0.28519,-0.792834 0.0915,-1.109156 -0.43624,-0.712498 -1.93838,-0.208836 -2.31773,-0.953176 -0.40963,-0.803703 0.79677,-1.741058 0.63762,-2.628974 -0.25547,-1.425459 -2.07466,-2.199831 -2.42648,-3.604633 -0.1099,-0.438874 0.26905,-0.916521 0.13844,-1.34968 -0.35279,-1.169946 -1.99328,-1.657383 -2.32736,-2.832805 -0.1907,-0.670958 -0.0554,-1.460983 0.2795,-2.072919 0.25178,-0.460178 0.99656,-0.535858 1.19932,-1.019633 0.18053,-0.430721 0.16555,-1.013891 -0.10209,-1.39659 -0.41002,-0.586099 -1.67427,-0.225682 -1.95697,-0.882804 -0.22891,-0.532122 0.2536,-1.157242 0.57158,-1.641427 0.53068,-0.808028 2.11588,-0.996056 2.13401,-1.962587 0.0111,-0.590639 -0.95956,-0.736381 -1.25849,-1.245906 -0.46348,-0.789983 -0.13483,-1.955693 -0.73549,-2.647139 -0.49532,-0.570158 -1.79056,-0.207503 -2.07722,-0.90627 -0.33236,-0.810113 1.29863,-1.625268 0.97695,-2.439681 -0.99263,-2.513236 -5.54726,-1.414802 -7.34212,-3.434744 -0.49947,-0.562097 -0.88946,-1.41091 -0.70939,-2.140968 0.11972,-0.485438 1.21102,-0.559247 1.07872,-1.041416 -0.55319,-2.016082 -4.67696,0.08712 -6.10279,-1.441817 -0.80433,-0.862506 0.2791,-2.673165 -0.57096,-3.490641 -1.27262,-1.223824 -4.02085,0.610154 -5.25664,-0.650839 -0.68931,-0.70334 0.37994,-2.229372 -0.30434,-2.937553 -0.5131,-0.531033 -1.67977,0.225838 -2.19484,-0.303282 -0.47894,-0.491995 0.33188,-1.648682 -0.22635,-2.048486 -0.83517,-0.598172 -2.15396,1.236143 -3.00793,0.66512 -0.47427,-0.317136 0.14358,-1.322339 -0.29737,-1.684354 -0.74513,-0.611767 -2.11821,0.636938 -2.89197,0.06181 -0.66158,-0.491738 0.0555,-1.977592 -0.66215,-2.383166 -0.87712,-0.495697 -1.94058,1.072815 -2.9128,0.808517 -2.072404,-0.563304 -2.334886,-4.720248 -4.480569,-4.629492 -1.299943,0.05497 -1.186907,3.253456 -2.467709,3.024486 -1.210315,-0.216375 -0.175451,-2.804394 -1.197396,-3.487991 -0.949629,-0.635232 -1.949547,1.347515 -2.840207,0.631948 -0.747502,-0.600499 -4.22e-4,-2.76867 -1.02746,-3.265807 -1.954036,-0.945828 -3.145988,1.982631 -5.281361,1.591409 -1.029555,-0.188662 -1.516766,-2.610705 -2.688965,-2.374528 -1.280516,0.257988 -0.800751,2.585554 -1.704364,3.52883 -0.402718,0.420395 -1.703531,0.275025 -2.28329,0.327926 -1.72533,0.157393 -2.877909,0.02391 -4.203094,-1.092072 -1.003078,-0.844713 -0.514291,-3.464504 -1.8255,-3.485675 -1.295076,-0.0209 -0.616483,3.40039 -1.911651,3.382632 -2.201232,-0.03018 -5.34073,0.555369 -7.753437,1.242714 -1.236965,0.352399 -1.291532,-3.038545 -2.567881,-2.879729 -1.144635,0.142429 -0.79358,2.242796 -1.600422,3.067094 -0.671338,0.685859 -1.565714,1.433675 -2.524233,1.385389 -1.025988,-0.05167 -1.607585,-2.180186 -2.539138,-1.747122 -0.783527,0.364259 0.318642,1.9323 -0.252049,2.581082 -0.266441,0.302908 -0.850797,0.03543 -1.179524,0.269273 -0.464898,0.330696 -0.395378,1.202266 -0.908909,1.450789 -0.887931,0.429739 -1.64009,-2.173975 -2.719171,-1.917477 -1.128659,0.268284 -0.987429,2.109376 -1.637457,3.070275 -0.236296,0.349294 -0.823012,0.165278 -1.217691,0.313847 -0.920821,0.346634 -1.863187,-0.319488 -2.515465,0.211541 -1.340159,1.091056 -0.02174,4.028204 -1.470567,4.970186 -0.550514,0.35793 -1.405725,-0.617289 -1.95297,-0.254371 -0.445078,0.295166 0.05914,1.319732 -0.425871,1.543279 -0.306759,0.141377 -0.586569,-0.491283 -0.918519,-0.42884 -3.154096,0.593412 -1.389216,4.660542 -2.925921,7.942467 -0.312279,0.666929 -5.059458,-2.588534 -7.018657,-1.244208 -1.519852,1.042858 0.210597,4.092067 -1.058869,5.42846 -0.466969,0.491593 -1.540085,-0.03077 -1.973468,0.490653 -0.792411,0.953392 0.629687,2.813386 -0.22465,3.711697 -0.473193,0.497553 -1.601063,-0.295612 -2.04681,0.226673 -1.341466,1.571754 1.614608,4.601456 0.295447,6.191984 -0.88483,1.066836 -3.322934,-0.559608 -4.119072,0.574949 -0.843409,1.201918 1.352884,2.90906 0.912276,4.309707 -0.272912,0.867561 -1.608844,1.038793 -1.991636,1.863784 -0.609538,1.313654 0.622461,3.162683 -0.220658,4.340128 -0.396894,0.554273 -1.899706,0.07459 -1.900445,0.756303 -9.41e-4,0.87564 1.845949,0.331989 2.440009,0.975293 0.410293,0.444309 0.652713,1.139226 0.53757,1.732942 -0.247388,1.27737 -2.484242,1.723491 -2.467709,3.024493 0.0126,0.991473 2.100163,1.277603 1.938795,2.255936 -0.160558,0.97331 -2.252987,0.564234 -2.54769,1.505646 -0.5875,1.876731 2.113126,3.42661 2.459871,5.362337 0.12376,0.690174 -0.178348,1.39716 -0.159566,2.098041 0.01735,0.647412 0.297557,1.280639 0.250131,1.926548 -0.07228,0.983812 -1.093265,1.904258 -0.805144,2.847709 0.465952,1.525799 2.944672,1.662292 3.653572,3.091501 0.225187,0.453899 0.395388,1.122337 0.07997,1.518848 -0.355158,0.446487 -1.48699,-0.237621 -1.686029,0.297045 -0.334876,0.899418 1.929657,1.27919 1.818545,2.232481 -0.107571,0.92239 -2.402691,0.78845 -2.208701,1.696603 0.205543,0.962207 2.292005,-0.1105 2.871171,0.684883 1.262098,1.733274 -1.860263,4.755564 -0.500165,6.413044 0.703473,0.85728 2.701254,-0.53747 3.302324,0.39447 0.782104,1.21263 -2.191496,2.98898 -1.304357,4.12701 0.806242,1.03427 3.062689,-1.22301 3.926447,-0.23627 0.647501,0.73969 -0.564623,2.89462 -0.564623,2.89462 0,0 1.041555,0.011 1.302433,0.38063 0.881833,1.24946 -1.416361,3.56984 -0.26725,4.57897 0.828717,0.72776 3.251786,-0.61755 3.251786,-0.61755 0,0 0.257968,0.54121 0.485362,0.7206 0.195609,0.15434 0.699453,0.263 0.699453,0.263 0,0 -0.780125,2.53316 -0.03202,3.37302 0.628996,0.70614 2.139123,-0.35427 2.82128,0.30065 0.532682,0.51139 0.323472,2.19052 0.323472,2.19052 0,0 3.522529,0.52945 4.394984,1.85945 0.616916,0.94045 -0.991733,2.78766 -0.03234,3.37469 0.894881,0.54757 2.788538,-1.46039 2.788538,-1.46039 0,0 1.278618,0.77322 1.740878,1.34173 1.033653,1.27123 0.759863,3.54435 2.141685,4.42468 1.755043,1.11811 6.243219,0.0908 6.243219,0.0908 0,0 0.665933,4.37568 2.408638,4.9761 1.409675,0.48567 2.529202,-1.84566 4.014983,-1.97019 1.271251,-0.10656 2.661518,0.30822 3.669421,1.09026 1.306157,1.01343 0.959088,3.80856 2.551383,4.25317 z"
       id="path4496-0" />
  </g>
  <g
     inkscape:groupmode="layer"
     id="layer3"
     inkscape:label="yin-yang">
    <g
       id="g4556"
       transform="matrix(0.19244126,0,0,0.19325336,29.975887,37.152066)">
      <ellipse
         id="circle4533"
         cy="-300.17792"
         cx="-118.01271"
         transform="matrix(-0.90147772,0.4328255,-0.43642773,-0.89973932,0,0)"
         rx="285.03708"
         ry="284.13239"
         style="stroke-width:1.23196697" />
      <path
         id="path4535"
         d="m 237.39182,-58.710104 a 279.1356,277.71307 0 0 1 0,555.426144 139.5678,138.85654 0 0 1 0,-277.71307 z"
         inkscape:connector-curvature="0"
         style="fill:#ffffff;stroke-width:1.23196208" />
      <ellipse
         id="circle4537"
         cy="-80.146423"
         cx="-237.39182"
         style="fill:#000000;stroke-width:1.23196208"
         transform="scale(-1)"
         rx="139.56781"
         ry="138.85654" />
      <ellipse
         id="circle4541"
         cy="-80.146423"
         cx="-237.39182"
         style="fill:#ffffff;stroke-width:1.23196208"
         transform="scale(-1)"
         rx="37.053398"
         ry="36.864567" />
    </g>
  </g>
  <g
     inkscape:label="Tigre"
     id="g4512"
     inkscape:groupmode="layer">
    <path
       inkscape:connector-curvature="0"
       style="color:#000000;font-style:normal;font-variant:normal;font-weight:normal;font-stretch:normal;font-size:medium;line-height:normal;font-family:sans-serif;font-variant-ligatures:normal;font-variant-position:normal;font-variant-caps:normal;font-variant-numeric:normal;font-variant-alternates:normal;font-feature-settings:normal;text-indent:0;text-align:start;text-decoration:none;text-decoration-line:none;text-decoration-style:solid;text-decoration-color:#000000;letter-spacing:normal;word-spacing:normal;text-transform:none;writing-mode:lr-tb;direction:ltr;text-orientation:mixed;dominant-baseline:auto;baseline-shift:baseline;text-anchor:start;white-space:normal;shape-padding:0;clip-rule:nonzero;display:inline;overflow:visible;visibility:visible;opacity:1;isolation:auto;mix-blend-mode:normal;color-interpolation:sRGB;color-interpolation-filters:linearRGB;solid-color:#000000;solid-opacity:1;vector-effect:none;fill:#070707;fill-opacity:1;fill-rule:nonzero;stroke:none;stroke-width:0.60000002;stroke-linecap:butt;stroke-linejoin:round;stroke-miterlimit:22.89999962;stroke-dasharray:none;stroke-dashoffset:0;stroke-opacity:1;color-rendering:auto;image-rendering:auto;shape-rendering:auto;text-rendering:auto;enable-background:accumulate"
       d="m 92.186483,28.192884 c -0.338884,-0.07698 -0.658639,-0.08215 -0.949815,0.0046 -0.640306,0.190758 -1.127341,0.688067 -1.522895,1.321586 -0.01822,0.02835 -0.03155,0.05957 -0.03947,0.09234 -0.306628,1.359106 -0.578501,2.804768 0.07616,4.344033 0.0082,0.01925 0.01835,0.03758 0.03034,0.0547 0.758357,1.080487 -0.31422,0.570774 4.790763,5.593085 l -0.0066,-0.009 c 0.57338,0.607981 1.74765,1.08281 3.332754,1.56837 1.585055,0.485553 3.56876,0.945533 5.68423,1.360762 0.0103,0.0016 0.0206,0.0028 0.0311,0.0033 0.21927,0.02071 0.66864,0.162858 1.10104,0.352039 0.4324,0.18918 0.86588,0.427938 1.10719,0.60669 1.62393,1.202901 2.94078,2.720345 3.8483,4.182329 0.90686,1.460919 1.39562,2.874849 1.40839,3.804265 l 0.002,0.0023 c -0.0819,1.42841 -0.29473,3.40447 -1.17284,5.12781 -1.39477,1.165189 -3.1018,2.041217 -3.9455,4.597952 -1.25505,2.726971 -1.38805,5.395907 -1.10264,8.00667 0.16068,1.469842 -0.61179,2.944051 -0.6399,4.616304 -1.77768,2.029263 -2.4557,4.458662 -3.13956,6.821545 -0.62521,1.859123 -1.628975,2.169098 -2.687963,2.961702 -4.947991,2.840175 -11.092745,4.016198 -16.435435,6.29577 -4.979475,0.605556 -9.890271,1.471033 -14.411795,3.686481 -0.0011,6.82e-4 -0.0031,5.8e-4 -0.0043,0.0013 -4.156573,1.851273 -7.782216,4.943336 -9.691248,7.470593 -0.03955,0.0523 -0.06088,0.11621 -0.0607,0.18183 0.0033,1.87105 0.806736,3.19571 1.898045,4.43057 0.512853,0.31408 0.99739,0.27601 1.524164,0.28737 0.265588,0.81548 0.413385,1.69482 1.038462,2.56833 0.129387,0.17928 0.401414,0.16182 0.506803,-0.0325 0.426309,-0.78146 0.48478,-1.57273 0.669067,-2.28731 0.801151,-0.36944 1.653776,-0.81141 2.435841,-1.0749 0.822646,-0.27715 1.526577,-0.34319 2.019175,-0.0364 0.03527,0.0216 0.07474,0.0359 0.115758,0.0415 1.426014,0.20746 2.037275,1.11234 2.188011,1.93799 l -1.263303,0.29792 c -0.186432,0.0436 -0.284864,0.24832 -0.202517,0.42118 0.118405,0.2482 0.06302,0.87798 -0.05287,1.39175 -1.230125,-0.0369 -2.346475,-0.33984 -3.360205,-0.54674 -0.146931,-0.0291 -0.292986,0.0538 -0.342351,0.19527 -0.380979,1.08531 -0.593663,2.35517 -0.739397,3.53739 -1.220875,0.27532 -2.296233,1.19639 -3.34314,2.10909 -0.03432,0.0293 -0.06146,0.066 -0.07965,0.10728 -0.274411,0.63292 -0.620713,1.27636 -0.701793,2.28173 -0.08112,1.00538 0.09931,2.35075 0.807838,4.45681 0.01455,0.045 0.03944,0.0858 0.07278,0.11939 0.716318,0.7082 1.772952,0.95545 2.699844,1.13165 0.463449,0.0881 0.899606,0.15632 1.239531,0.23695 0.339891,0.0808 0.573761,0.19261 0.635473,0.25884 0.09534,0.10186 0.248251,0.12477 0.369094,0.0548 0.238592,-0.13742 0.42455,-0.35538 0.631511,-0.6017 0.20697,-0.2463 0.424939,-0.5227 0.653007,-0.77436 0.228119,-0.25166 0.467226,-0.4763 0.701253,-0.61557 0.234026,-0.13927 0.44839,-0.19654 0.680316,-0.15553 0.187596,0.033 0.260542,-0.0557 0.310213,-0.0997 0.04969,-0.044 0.08683,-0.0881 0.12669,-0.13891 0.0797,-0.10159 0.167761,-0.23207 0.276914,-0.39265 0.218313,-0.32117 0.51338,-0.75673 0.896465,-1.23811 0.765289,-0.96166 1.88042,-2.09182 3.394046,-2.77999 2.832575,-0.0205 6.38639,-2.38902 7.30382,-2.81917 2.581284,0.66252 8.515592,1.69018 9.239083,1.80001 -0.301874,0.233 -0.311289,0.63389 -0.206754,0.78303 0.135035,0.19382 0.735998,0.30899 0.710126,0.75104 -0.06086,0.12561 -0.130688,0.18178 -0.188568,0.19968 -0.04251,0.0131 -0.08144,0.0356 -0.114225,0.0658 -0.467859,0.43435 -1.038842,0.75426 -1.530918,0.96161 -0.492077,0.20735 -0.942938,0.2986 -1.022165,0.30135 -0.480046,0.0167 -0.877549,0.35427 -1.342469,0.70445 -0.46491,0.35018 -0.960916,0.74623 -1.387729,0.97015 -0.04837,0.0249 -0.08897,0.0626 -0.117636,0.10875 -0.306985,0.50265 -0.353863,1.09555 -0.39941,1.68141 -1.082794,1.4003 -1.438825,2.9563 -1.033423,4.57699 0.003,0.0121 0.761548,0.24768 0.766158,0.25932 0.176051,0.45143 -0.24103,0.53893 0.160882,0.70699 0.401917,0.16809 0.86265,0.21311 1.352034,0.20459 2.103878,0.34222 4.25864,0.90968 6.665401,-0.30474 0.283783,-0.0187 0.523946,-0.15244 0.696975,-0.32308 0.173038,-0.17064 0.293073,-0.37242 0.402802,-0.5733 0.21944,-0.40178 0.407177,-0.79402 0.664347,-0.98048 1.544734,-1.11998 2.52925,-2.59255 3.327473,-3.8196 2.598562,-1.41249 5.293202,-2.62015 7.853112,-6.17101 0.0242,-0.0329 0.0414,-0.0705 0.0504,-0.11029 l 0.55603,-2.4611 c 3.82307,-2.81497 6.04274,-6.95198 7.8534,-11.32425 0.48013,0.4158 0.96258,0.78801 1.43656,1.06897 0.0821,0.0488 0.18241,0.0556 0.2703,0.0183 0.54344,-0.23015 1.07432,-0.61268 1.5395,-1.11667 0.62285,0.95848 1.16447,1.27031 1.93453,1.26278 0.51431,-0.005 1.06656,-0.32639 1.27531,-0.86845 0.19094,-0.49583 0.32465,-1.00303 0.46946,-1.42974 0.3966,-0.0323 0.80902,-0.0726 1.19923,-0.34053 0.0369,-0.0254 0.0676,-0.0588 0.09,-0.0976 0.22394,-0.388728 0.31601,-0.812115 0.45937,-1.126344 0.14341,-0.314221 0.2801,-0.501623 0.65102,-0.576582 0.0748,-0.01531 0.14103,-0.05859 0.18507,-0.121026 0.49054,-0.688497 0.57585,-1.600533 0.53752,-2.597002 -0.0382,-0.996453 -0.20875,-2.094608 -0.31121,-3.185412 -0.0702,-0.747325 -0.053,-1.179197 0.48793,-1.828794 0.005,-0.0056 0.009,-0.01154 0.0131,-0.01757 1.9953,-2.797859 3.68281,-5.866057 4.503,-9.602757 0.005,-0.02501 0.008,-0.05052 0.007,-0.0761 -0.095,-2.497513 0.72328,-3.316726 -2.68602,-10.65524 0.12573,-3.438909 0.009,-6.933486 -2.2137,-10.29937 -0.006,-0.0086 -0.0113,-0.01683 -0.0176,-0.02479 -2.26874,-2.803184 -5.03773,-4.436451 -7.85997,-5.626641 -0.24338,-0.103132 -0.60953,-0.653284 -0.60827,-1.302304 0.0693,-2.366266 0.6257,-3.576546 0.47385,-4.781305 -0.002,-0.0211 -0.008,-0.04195 -0.0152,-0.06202 -0.68009,-1.939249 -2.03249,-3.777684 -3.52995,-5.469409 -1.26803,-1.432541 -2.71588,-2.693109 -4.21555,-3.759489 -0.009,-0.0067 -0.0187,-0.01302 -0.0285,-0.01872 -2.065,-1.140255 -4.0581,-1.573302 -8.764567,-2.759327 -1.420569,-0.428809 -3.24528,-2.313274 -4.429286,-3.970257 -0.259507,-2.003769 -0.612497,-2.880206 -1.198702,-3.453517 -0.01536,-0.01522 -0.03233,-0.02874 -0.05055,-0.04031 l -0.002,-3.36e-4 c -0.05939,-0.03666 -0.129781,-0.05146 -0.198935,-0.04181 -0.371126,-0.203833 -0.729129,-0.35264 -1.068013,-0.429625 z m -0.23015,0.781034 c 0.130583,0.01626 0.254528,0.0525 0.359868,0.108859 0.605024,0.3239 1.205554,1.340763 0.802318,1.896066 -0.184255,0.25374 -0.687306,-0.269754 -0.937304,-0.08044 -0.411144,0.311345 0.137957,1.232767 -0.290567,1.51966 -0.129912,0.08697 -0.35047,0.01793 -0.459466,-0.09414 -0.701775,-0.721576 -1.095665,-2.145772 -0.523562,-2.973934 0.203718,-0.294914 0.656992,-0.424799 1.048763,-0.376069 z m 0.738266,4.248808 c 0.722759,0.123297 1.803746,0.581264 2.121432,0.724019 0.712063,0.319977 -0.301206,2.570982 -0.778238,2.730342 -0.728936,0.243515 -1.931075,-2.787468 -2.014965,-3.174543 -0.06658,-0.307192 0.238126,-0.353794 0.671771,-0.279818 z m 4.907872,4.463902 c 0.638236,0.01537 1.320314,0.506091 1.573266,1.09226 0.105265,0.243933 0.09764,0.633572 -0.118463,0.788173 -0.398172,0.284929 -0.98829,-0.08633 -1.44527,-0.262098 -0.477526,-0.183661 -1.3036,-0.29709 -1.30457,-0.808725 -0.001,-0.509094 0.786066,-0.821871 1.295009,-0.80962 z m 7.376359,1.546038 c 0.39066,0.0622 0.77924,0.244766 1.02639,0.487916 0.45205,0.444739 0.72627,1.448154 0.26548,1.88385 -0.55651,0.526215 -1.75457,0.133508 -2.25375,-0.447391 -0.36818,-0.428466 -0.49097,-1.309651 -0.0761,-1.69308 0.25462,-0.235316 0.64732,-0.293491 1.03796,-0.231295 z m -3.13699,-0.379936 c 0.18282,0.05908 0.23333,0.33795 0.2267,0.529981 -0.0132,0.38193 -0.14051,1.011056 -0.52258,1.020474 -0.39198,0.0097 -0.68541,-0.639746 -0.58713,-1.019344 0.0861,-0.332512 0.55617,-0.636721 0.88301,-0.531111 z m 7.49807,2.878375 c 0.54179,0.01037 1.19411,0.607014 1.15179,1.14725 -0.0552,0.70499 -1.03115,1.41359 -1.71785,1.244781 -0.46333,-0.113899 -0.72391,-0.812292 -0.63756,-1.281538 0.0986,-0.536904 0.65784,-1.120931 1.20362,-1.110493 z m 2.5577,3.058979 c 0.56297,0.03669 1.19631,1.027329 1.05513,1.59836 -0.14325,0.57936 -1.07111,0.812338 -1.65418,0.685025 -0.4936,-0.107776 -0.641,-0.710686 -0.74083,-1.140632 0.1479,-0.740046 0.50987,-0.796509 1.10596,-1.095432 0.0751,-0.03767 0.1535,-0.05256 0.23392,-0.04732 z m 1.33636,3.389795 c 0.41747,0.126657 0.59042,0.767632 0.52484,1.198933 -0.0257,0.16866 -0.1708,0.341576 -0.33533,0.386672 -0.59463,0.16296 -1.67877,0.02752 -1.75492,-0.584304 -0.0765,-0.614677 0.97268,-1.181128 1.56541,-1.001301 z m 0.77076,2.453369 c 0.10847,0.02487 0.2073,0.06914 0.29396,0.135274 0.71521,0.545854 0.26644,2.340008 -0.58363,2.634716 -0.70437,0.244199 -1.80472,-0.674412 -1.73008,-1.416166 0.0764,-0.759288 1.26045,-1.527832 2.01975,-1.353829 z m 1.87474,6.26521 c 1.13092,0.147481 1.84368,0.790443 2.64941,1.404393 0.72737,0.55424 1.56617,0.908413 2.15238,1.577275 0.89165,1.017371 1.69681,2.230597 1.94935,3.559618 0.18994,0.99954 -0.38115,3.027823 -0.38115,3.027823 -0.0641,0.508186 0.4847,0.79903 -0.19324,1.401516 -0.31712,0.281844 -0.55423,1.719167 -0.32931,2.456144 0.12382,0.405681 0.81202,0.32629 1.10227,0.63557 0.13712,0.146103 0.30032,0.341248 0.26681,0.538794 -0.12171,0.717578 -1.05547,1.002623 -1.55993,1.527272 -0.39938,0.415366 -0.67665,0.970784 -1.16153,1.28211 -0.48787,0.313254 -1.08631,0.617946 -1.65841,0.52382 -0.29253,-0.04812 -0.59308,-0.256832 -0.7167,-0.526291 -0.27141,-0.591563 0.32053,-1.316299 0.15312,-1.945275 -0.43669,-1.641096 -3.34825,-2.580243 -2.8708,-4.209949 0.13789,-0.470575 0.86507,-0.607326 1.35453,-0.577575 0.97238,0.0591 1.55802,1.522373 2.53039,1.463366 0.36406,-0.0221 0.82493,-0.297995 0.87512,-0.659257 0.17502,-1.259416 -2.03379,-1.796497 -2.30766,-3.038171 -0.13658,-0.619251 -0.12858,-1.517276 0.40584,-1.85863 0.49722,-0.317594 1.27532,0.764571 1.72738,0.385443 0.58889,-0.493883 0.19723,-1.595183 -0.10086,-2.303571 -0.83203,-1.976972 -4.49461,-2.780548 -4.39873,-4.69614 0.18005,-6.69e-4 0.35014,0.01064 0.51171,0.03171 z m -6.98044,5.386519 c 0.26173,0.0751 0.16241,1.136908 -0.0113,1.543459 -0.26689,0.624439 -0.90277,1.281183 -1.58185,1.283803 -0.5595,0.0022 -1.41171,-0.497207 -1.31142,-1.047646 0.14436,-0.793707 2.0617,-1.287748 2.77029,-1.747027 0.053,-0.03435 0.0969,-0.04331 0.13433,-0.03259 z m -1.84221,6.254041 c 0.16013,0.02201 0.30888,0.07243 0.43131,0.15472 0.38857,0.261152 0.50383,0.970832 0.27245,1.377834 -0.29501,0.518945 -1.16844,0.895363 -1.68726,0.600135 -0.48426,-0.275558 -0.63387,-1.177724 -0.32288,-1.640028 0.24702,-0.367209 0.82597,-0.558655 1.30638,-0.492659 z m 8.95138,5.093389 c 1.27557,0.155127 1.53926,2.390628 2.79775,2.650131 1.42181,0.293179 2.7209,-1.181694 4.0707,-1.297618 0.78431,0.3202 0.99982,0.47438 1.27231,1.742352 -0.2918,1.163685 -2.48167,1.591702 -3.23006,2.805941 -0.28692,0.46553 -0.57538,1.072221 -0.4039,1.591488 0.061,0.184787 0.26207,0.327653 0.45237,0.368323 0.98302,0.21008 1.98928,-1.178384 2.91289,-0.781627 0.36149,0.15528 0.5051,0.647677 0.56235,1.036916 0.059,0.401065 -0.006,0.864894 -0.2483,1.190045 -0.54207,0.728009 -1.8304,0.584701 -2.39426,1.295963 -0.33101,0.41754 -0.61296,1.046814 -0.41946,1.543267 0.23745,0.609209 1.24063,0.542777 1.66078,1.043769 0.16155,0.192634 0.35468,0.457068 0.28326,0.698119 -0.17018,0.574299 -0.91849,0.804238 -1.47464,1.026673 -0.49742,0.198944 -1.2033,-0.125132 -1.58934,0.246323 -0.46719,0.449544 -0.42022,1.262232 -0.36879,1.90853 0.0377,0.473574 0.62377,0.883881 0.48901,1.339441 -0.0517,0.17488 -0.26365,0.274683 -0.43819,0.327541 -0.75903,0.229867 -1.39951,0.50615 -2.37433,-0.135082 -0.40894,-1.915856 1.10958,-3.259997 0.81007,-4.882522 -0.15185,-0.822618 -0.49449,-2.485081 -1.26757,-2.165537 -1.22259,0.505344 -0.2477,4.324633 -1.50231,5.93353 -0.42606,0.546375 -1.47291,0.734672 -1.828,0.984299 -1.21039,0.850902 -2.00274,2.332173 -2.59939,3.686088 -0.38707,0.878325 -0.21241,1.747998 -0.64923,2.484849 -0.63031,1.06317 -1.84904,2.579951 -2.69835,2.545851 -1.1321,-0.32796 -1.1167,-2.606135 -2.22879,-3.361553 -0.46342,-0.314792 -1.20625,0.0012 -1.64467,-0.347584 -0.20306,-0.161541 -0.14922,-0.517161 -0.32753,-0.705661 -0.20809,-0.219974 -0.62122,-0.183952 -0.80087,-0.427699 -0.22403,-0.303957 -0.45435,-0.820644 -0.21466,-1.112401 0.43202,-0.525856 1.50577,0.409916 2.0406,-0.01094 0.62687,-0.493274 0.73645,-1.541574 0.57607,-2.322962 -0.10162,-0.49513 -0.8541,-0.708236 -0.91524,-1.209974 -0.0495,-0.406106 0.11537,-0.949834 0.48346,-1.128185 0.41953,-0.203191 0.97061,0.09469 1.35049,0.364821 0.69199,0.492068 0.69682,1.684221 1.43444,2.10481 0.36674,0.209113 1.046,0.442078 1.26417,0.08066 1.24664,-2.065122 1.50866,-5.251333 1.31608,-5.491735 0,0 -0.89117,-0.724637 -0.99828,-1.245916 -0.0879,-0.427879 -0.0343,-1.053728 0.34974,-1.261919 0.51648,-0.280009 1.25995,0.121881 1.6806,0.532016 0.69154,0.674253 0.16612,2.169085 0.94602,2.738814 0.4929,0.360076 1.19678,0.278871 1.65728,-0.121814 0.93486,-0.813435 -0.22421,-2.748455 -0.23991,-3.987568 -0.0426,-3.364678 -2.2054,-4.825771 -2.11353,-5.491589 0.0828,-0.6005 1.17101,-0.788026 1.73142,-0.55695 1.52671,0.62951 0.89327,3.501307 2.27737,4.402068 0.28565,0.1859 0.68453,0.121702 1.01989,0.06083 0.57488,-0.104244 0.81619,-1.017687 1.33977,-0.758404 1.03227,0.511187 0.43367,3.216318 1.05598,3.407405 0.84855,-0.08419 0.73402,-1.866716 0.54407,-2.797975 -0.0469,-0.229708 -0.33093,-0.356531 -0.39413,-0.582281 -0.18202,-0.650159 0.31373,-1.384675 0.0972,-2.024146 -0.15762,-0.46539 -0.52387,-0.883061 -0.95152,-1.125015 -0.77573,-0.43889 -1.92488,0.104797 -2.63945,-0.427917 -0.95695,-0.713406 -1.91217,-2.083787 -1.55691,-3.223299 0.23214,-0.744615 1.26116,-1.249174 2.03541,-1.155014 z m -10.69984,0.808107 c 0.41692,0.05881 0.81457,0.251838 1.01137,0.55272 0.27517,0.420705 -0.13294,1.030361 -0.40596,1.452447 -0.40934,0.632744 -1.0544,1.767918 -1.73657,1.447646 -0.96574,-0.453409 -0.79953,-2.501572 0.006,-3.200641 0.27159,-0.235578 0.70781,-0.310985 1.12474,-0.252172 z m 15.41229,18.91989 c 0.54207,-0.05909 0.6908,1.675716 0.70487,2.56102 0.007,0.459331 0.021,1.035686 -0.32331,1.339729 -0.36578,0.322912 -1.05953,-0.122161 -1.45451,0.164288 -0.5584,0.404956 -0.18391,1.7437 -0.85962,1.882361 -0.73879,0.151608 -0.9243,-1.599314 -1.67447,-1.521607 -0.82017,0.08496 -0.63665,1.873387 -1.45087,2.003527 -0.86023,0.137491 -1.69099,-0.773178 -2.11625,-1.533476 -0.1258,-0.224903 0.0723,-0.549023 -0.0589,-0.770838 -0.13298,-0.224868 -0.56974,-0.182201 -0.65605,-0.428781 -0.18445,-0.526986 0.035,-1.322351 0.52462,-1.590732 0.90725,-0.497319 1.97424,0.812277 3.00782,0.766069 1.44496,-0.0646 3.63082,-2.961624 4.35669,-2.871552 z M 98.966361,90.917995 c 0.381325,0.05372 0.786852,0.302908 1.148719,0.932748 0.3139,1.100782 0.20013,4.607761 1.09421,6.694905 0.28965,0.414925 2.46957,1.446776 3.09104,1.905612 0.35885,0.60695 1.12753,3.24027 2.29261,4.62656 0.33412,1.35729 -0.25187,3.92814 -0.58916,3.62045 -0.0908,-1.4319 -0.97706,-2.02128 -1.68688,-2.79768 -1.26997,0.0154 -2.62848,-0.17384 -3.05504,-0.75628 -7.2e-4,-0.69694 -2.048919,-3.26707 -3.436223,-3.24036 -0.630148,0.14692 -1.315679,0.57168 -1.680861,1.31844 -0.04216,0.92069 1.433455,1.89433 2.429934,2.25065 0.343779,0.16353 0.564029,0.98474 0.36442,1.16367 -0.511125,0.36446 -2.135795,0.0191 -2.122442,1.78212 0.0034,0.4545 -0.528923,0.11592 -0.733538,0.22373 -0.768046,0.5538 -0.57329,3.51603 -0.820482,3.58301 -0.464706,0.12595 -0.586746,-0.1798 -0.874881,-0.0282 -0.288136,0.1516 0.123523,0.4887 -0.342851,0.77966 -0.280271,0.17486 -0.782864,-0.039 -1.258972,0.16788 -0.575911,0.19803 -1.378406,-0.0366 -1.394259,-0.51493 -0.0159,-0.47827 0.361913,-0.69465 1.138707,-0.74114 0.308815,-0.006 0.673015,-0.65627 0.513878,-1.01602 -0.204069,-0.3898 -0.233756,-1.42485 -0.406174,-1.33721 -0.236478,0.32114 -0.521433,0.52968 -0.841069,0.65713 -0.327962,-0.007 -0.540743,0.11426 -0.672739,0.45995 -0.714558,0.38484 -1.719887,1.26112 -2.147571,1.09232 -0.199933,-0.89575 1.056926,-1.54183 1.592622,-2.31224 0.176689,-0.90545 -0.174828,-0.98742 -0.817574,-0.95756 -1.025409,0.19441 -1.624064,0.93031 -2.322564,1.53801 -1.112023,0.18096 -1.961969,-0.0795 -2.963396,-0.61981 -0.394989,-0.006 -0.729587,0.20429 -1.183808,-0.0174 -0.0016,-1.44866 0.520549,-2.36371 0.860934,-3.40177 0.193555,-0.68413 -0.189688,-1.3989 0.326848,-2.20891 0.410123,0.3638 0.650694,1.23442 0.976185,1.85238 0.836865,-0.3721 0.947828,-2.02957 1.083543,-3.16174 1.273067,-0.76044 1.156048,-1.40747 1.124829,-1.88077 -0.101979,-0.727022 -0.564517,-0.628327 -0.641627,-1.222791 -0.07712,-0.594462 -0.24528,-1.461047 -0.355081,-1.613815 -0.109801,-0.152768 -0.727218,-0.966092 -0.887295,-1.036804 -0.160078,-0.07071 -0.870569,0.322172 -0.956447,0.508694 -0.08585,0.186527 0.329532,0.987147 0.352235,1.246794 0.02271,0.259649 -0.378917,1.614832 -0.352899,1.873592 0.02601,0.25877 0.35273,0.66547 0.253972,0.89324 -0.09876,0.22776 -0.494741,0.27097 -0.702853,0.43897 -0.208112,0.16799 -0.08527,0.58977 -0.267788,0.71121 -0.182561,0.12145 -0.849,-0.30055 -1.130457,-0.12129 -0.281461,0.17928 -0.295093,1.56944 -1.076692,1.79584 -0.468137,0.13561 -0.562551,0.56353 -0.667431,1.30092 -0.0551,0.38711 0.106493,0.85313 0.577924,0.99201 -0.634412,0.85217 -0.627447,1.53172 -0.709658,2.23483 -1.764264,0.97185 -2.905583,0.35357 -2.627412,-0.11481 0.177157,-0.0778 1.383772,-1.33947 1.352302,-2.27391 -0.0019,-0.80087 -2.409534,-3.80527 -4.247702,-3.83828 -0.65239,0.007 -0.361653,1.29399 -0.266334,1.4584 0.08545,0.1474 0.682072,0.13407 0.794392,0.44245 0.166129,0.45601 -0.504684,2.60014 -0.745225,2.57153 -0.380035,-0.0453 -0.279828,-1.88581 -0.302025,-2.16945 0.14791,-1.07473 -0.763287,-0.73486 -0.782257,-1.04862 -0.03042,-0.50292 0.152686,-1.33735 -0.101459,-1.86978 -0.253244,-0.53051 -1.475655,-0.49766 -1.968875,-0.37511 -0.479462,0.44202 -0.531627,1.70855 -0.892075,1.97985 -1.244222,0.0814 -2.022638,-0.63007 -2.19917,-0.80265 -1.205699,-1.17868 -4.598965,-0.74005 -5.133342,0.35972 0,0 0.173025,0.48997 0.135084,0.91657 -0.06591,0.74112 -0.611541,1.13858 -1.127501,1.37311 -0.930706,0.1531 -1.369334,-0.53602 -1.590836,-0.84958 -0.334783,-0.16625 -0.785511,-0.0517 -0.960115,-0.43501 -0.174593,-0.38342 0.0038,-0.97673 0.669367,-1.56806 0.650493,-0.57796 1.585526,-0.50978 1.707563,-0.9751 -0.223654,-0.95734 -1.616509,-1.08989 -1.58861,-1.734822 0.06453,-1.491753 6.436723,-4.381536 6.436723,-4.381536 0.853301,-0.277803 1.697775,0.22561 2.416353,0.144223 0.277812,-0.03147 0.311342,-0.481782 0.544306,-0.63637 0.192785,-0.12793 0.484268,-0.06191 0.661893,-0.210174 0.274112,-0.228796 0.222798,-0.724185 0.502078,-0.946699 0.320701,-0.25557 0.826647,-0.402743 1.187913,-0.32066 0.280833,0.0638 0.334567,0.479319 0.564378,0.652894 0.224913,0.169878 0.596261,0.348421 0.600542,0.684813 0.0034,0.26668 -0.232211,0.816346 -0.232211,0.816346 0,0 0.05744,0.593742 0.723202,0.685898 1.037398,0.143599 1.622179,-1.058807 2.245798,-0.819996 0.441058,0.168899 0.546651,0.534567 0.319367,0.835034 -0.227285,0.300468 -1.651261,1.128513 -1.762514,2.053461 -0.06234,0.518292 0.204439,1.24481 0.659538,1.420007 1.041515,0.400931 1.894398,-0.836078 2.36086,-1.472046 0.466462,-0.635963 0.768339,-1.17871 0.899964,-1.851711 0.102239,-0.522669 0.16139,-1.131813 -0.105024,-1.593004 -0.589495,-1.020663 -2.839693,-1.556385 -2.940232,-1.965111 -0.147892,-0.368361 0.189557,-0.448171 1.066651,-0.527561 0.877094,-0.07939 2.849483,0.299576 3.937703,1.12263 0.234557,0.177401 0.263773,0.533732 0.462556,0.75046 0.312477,0.340688 1.042926,0.630987 1.113127,0.827622 0.07021,0.196635 -0.68826,0.894348 -0.631582,1.067286 0.05666,0.172928 0.913703,0.819296 1.425023,0.973882 0.511339,0.15459 1.373611,-0.191167 1.540771,-0.577545 0.189537,-0.438112 -1.13297,-1.025166 -0.768834,-1.208804 0.734642,-0.109819 1.626097,-0.08446 1.499206,-0.717372 -0.32736,-0.680944 -1.302899,-1.79759 -0.983198,-2.043778 0.387851,-0.03668 0.479497,-0.504143 0.790588,-1.081802 0.836517,-0.326055 3.566656,0.463041 3.768992,0.624322 0.515846,0.411186 -0.606135,2.705289 -0.136623,3.604429 0.457281,0.875721 1.878129,0.974774 2.691333,0.553646 0.896792,-0.464415 0.518933,-2.71235 1.211876,-2.775335 l 1.159208,-0.10563 c 0.904333,-0.08219 0.268674,4.155757 0.267255,4.862002 -0.0015,0.726462 1.632142,1.25319 1.859731,1.259944 0.403679,0.01653 2.114906,0.141868 2.117093,-2.436847 -0.03145,-0.916814 -1.358625,-2.142175 -1.396657,-3.675465 -0.01514,-0.610389 -0.03427,-1.569943 0.269068,-1.788813 0.199018,-0.143553 0.76852,-0.597246 1.404052,-0.507719 z m 2.512719,16.591315 c 0.75451,0.12858 1.77244,1.20409 2.05953,1.94781 0.46113,1.19449 -1.87888,2.76089 -1.01358,3.70465 0.11653,0.12709 0.34834,-0.15542 0.50928,-0.0935 0.24327,0.0935 0.42432,0.36486 0.47683,0.62014 0.12655,0.61532 -0.16818,1.27409 -0.46768,1.8263 -0.42666,0.78661 -1.12101,1.41413 -1.81682,1.97684 -1.15422,0.93344 -2.877314,1.1257 -3.836237,2.25885 -0.218351,0.25803 -0.09575,0.74241 -0.363683,0.94849 -0.27909,0.21467 -0.790531,-0.12657 -1.049425,0.11245 -0.287034,0.26469 0.09029,0.91184 -0.219565,1.14937 -0.187896,0.14401 -0.515198,-0.19047 -0.708138,-0.0533 -0.729367,0.51855 0.0108,2.03588 -0.687839,2.59515 -0.223296,0.17876 -0.857763,0.0342 -0.857763,0.0342 0,0 -0.128193,0.65833 -0.369447,0.85438 -0.331184,0.26917 -0.923538,0.52726 -1.254483,0.25781 -0.168091,-0.13686 6e-6,-0.43348 -0.0021,-0.65023 -0.0039,-0.39724 0.166799,-0.84206 -0.02074,-1.19229 -0.115098,-0.21498 -0.357077,-0.42038 -0.600872,-0.41542 -0.354253,0.007 -0.667389,0.33531 -0.848077,0.64009 -0.323114,0.54504 0.241474,1.51613 -0.276796,1.88061 -0.391815,0.27554 -1.096921,0.0792 -1.407616,-0.28537 -0.322332,-0.37823 0.122611,-1.02685 -0.06141,-1.48849 -0.09498,-0.2383 -0.25226,-0.5389 -0.505565,-0.57947 -0.314735,-0.0506 -0.625474,0.23493 -0.821823,0.48606 -0.297117,0.38001 -0.07332,1.04838 -0.416654,1.38722 -0.279028,0.27539 -0.766985,0.46863 -1.130765,0.32247 -0.329907,-0.13259 -0.505166,-0.56788 -0.538361,-0.92187 -0.04398,-0.469 0.182534,-0.96001 0.474237,-1.32986 0.484235,-0.61388 1.484701,-0.66332 1.965544,-1.27986 0.224898,-0.28836 0.129835,-0.75013 0.356941,-1.0368 1.062165,-1.34127 2.6682,-2.38724 4.343359,-2.73514 1.312718,-0.27263 2.78198,1.22078 3.975503,0.60999 0.460393,-0.23561 0.760777,-0.867 0.706894,-1.38137 -0.109283,-1.04336 -2.149865,-1.40824 -1.982921,-2.44393 0.08877,-0.5508 0.853597,-0.94423 1.40997,-0.90297 0.999008,0.0742 1.262566,2.03391 2.262679,1.97648 0.436526,-0.025 0.737722,-0.55849 0.882658,-0.97102 0.213199,-0.60682 0.152425,-1.34176 -0.119881,-1.92442 -0.409061,-0.87545 -3.368136,-2.21735 -2.406909,-2.31607 1.159029,-0.11905 2.923215,-2.24174 3.731655,-3.35448 0.1562,-0.21499 0.37868,-0.27628 0.63018,-0.23342 z m -28.630957,1.24205 c 0.523963,0.1192 1.053747,0.49418 1.220651,0.92916 0.192849,0.50257 -0.214097,1.2576 -0.718046,1.44682 -0.466721,0.17523 -1.107943,-0.15621 -1.382497,-0.57236 -0.312101,-0.47305 -0.448587,-1.38461 0.02219,-1.70012 0.232217,-0.15562 0.543325,-0.17502 0.857699,-0.1035 z m -3.046184,1.41274 c 0.697703,0.10406 1.5056,0.45694 1.663911,0.97891 0.244249,0.8052 -0.964249,1.40452 -1.609273,1.94484 -0.589976,0.4942 -1.254573,1.28104 -2.010298,1.13552 -0.783861,-0.1509 -1.63538,-1.08165 -1.496617,-1.86775 0.205093,-1.16207 1.649056,-2.05992 2.819471,-2.21018 0.180329,-0.0231 0.400234,-0.016 0.632807,0.0187 z m 7.063534,1.39367 c 0.459344,0.0472 0.907658,0.17443 1.298701,0.38967 0.233106,0.12828 0.551519,0.36304 0.499942,0.62409 -0.22048,1.1208 -1.871754,1.45931 -2.99571,1.66305 -0.35521,0.0644 -0.802948,0.0821 -1.07027,-0.16054 -0.393209,-0.35685 -0.577996,-1.04815 -0.38873,-1.54427 0.185686,-0.48671 0.787352,-0.75404 1.293004,-0.8793 0.433272,-0.10733 0.903709,-0.13986 1.363061,-0.0927 z m -4.363398,0.99217 c 0.286882,0.0207 0.556322,0.10878 0.734524,0.30544 0.428711,0.47314 0.359025,1.35424 0.05409,1.9152 -0.885232,1.62848 -3.615725,1.425 -4.752022,2.88939 -0.500752,0.64527 -0.143432,1.75725 -0.712292,2.34334 -0.378726,0.39019 -1.092085,0.82217 -1.54506,0.52133 -0.486635,-0.32317 0.26024,-1.3113 -0.12823,-1.74753 -0.489976,-0.55016 -1.541471,-0.0332 -2.172309,-0.41374 -0.388649,-0.23441 -0.751487,-0.62068 -0.848981,-1.06395 -0.218903,-0.99535 -0.107761,-2.39001 0.729968,-2.97038 1.430736,-0.9912 3.522857,1.1323 5.185054,0.61595 1.105163,-0.34331 1.502727,-1.95328 2.609451,-2.29153 0.253805,-0.0776 0.558929,-0.12425 0.845808,-0.10355 z"
       id="path4510-0" />
    <path
       style="opacity:1;fill:#070707;fill-opacity:1;stroke:none;stroke-width:0;stroke-linecap:butt;stroke-linejoin:miter;stroke-miterlimit:4;stroke-dasharray:none;stroke-opacity:1"
       d="m 80.233148,96.519468 c -0.90749,0.728742 -0.852307,2.291876 -0.629971,3.434319 0.117556,0.604043 0.37621,1.510883 0.989755,1.558393 0.672573,0.0521 1.308306,-0.84688 1.33508,-1.520937 0.01694,-0.426879 -0.638845,-0.619499 -0.766439,-1.027212 -0.164271,-0.524908 -0.273219,-1.209068 0.05681,-1.649065 0.170028,-0.226684 0.738139,0.0088 0.807432,-0.265911 0.05405,-0.214259 -0.254608,-0.390214 -0.455992,-0.48117 -0.406328,-0.183522 -0.98904,-0.327581 -1.336676,-0.04842 z"
       id="path4537-9"
       inkscape:connector-curvature="0"
       sodipodi:nodetypes="sssssssss" />
    <path
       style="opacity:1;fill:#070707;fill-opacity:1;stroke:none;stroke-width:1px;stroke-linecap:butt;stroke-linejoin:miter;stroke-opacity:1"
       d="m 70.024693,100.65303 c -0.02426,-0.36191 0.303888,-0.700362 0.602673,-0.90601 0.44619,-0.307112 1.146594,-0.03968 1.585183,-0.357555 0.333042,-0.241372 0.225093,-1.003794 0.632654,-1.059411 0.562308,-0.07675 1.237766,0.606864 1.232727,1.174369 -0.0037,0.410264 -0.549343,0.630447 -0.906125,0.833027 -0.521353,0.29601 -1.193764,0.23306 -1.723783,0.51325 -0.276889,0.14638 -0.416586,0.61925 -0.728696,0.59315 -0.349636,-0.0292 -0.671187,-0.44075 -0.694633,-0.79082 z"
       id="path4539-2"
       inkscape:connector-curvature="0"
       sodipodi:nodetypes="sssssssss" />
    <path
       style="opacity:1;fill:#070707;fill-opacity:1;stroke:none;stroke-width:1px;stroke-linecap:butt;stroke-linejoin:miter;stroke-opacity:1"
       d="m 66.310439,97.061355 -0.969759,0.955556 -0.893276,0.901331 0.156019,1.05769 1.327974,-0.558287 1.343134,0.273678 0.785646,-0.269625 0.508126,-0.877288 z"
       id="path4541-0"
       inkscape:connector-curvature="0" />
    <path
       style="opacity:1;fill:#070707;fill-opacity:1;stroke:none;stroke-width:1px;stroke-linecap:butt;stroke-linejoin:miter;stroke-opacity:1"
       d="m 90.695381,96.553596 c -0.445645,-0.254028 -0.948794,0.640608 -1.024957,1.147885 -0.209316,1.394054 1.653024,2.437439 1.766188,3.842579 0.07014,0.87081 -0.318318,1.7397 -0.699345,2.52587 -0.65361,1.34876 -1.330201,2.3446 -2.657736,3.6268 -0.266643,0.25754 -0.104366,0.61399 0.577808,0.95024 1.093903,-0.17125 2.424183,-1.53601 3.235555,-2.67657 0.273831,-0.38492 0.209149,-0.95189 0.49522,-1.3278 0.312276,-0.41034 0.795009,-0.67026 1.252937,-0.9073 0.521009,-0.26969 1.036267,0.0163 1.66586,-0.56796 -1.09987,-2.52739 -3.210326,-5.81503 -4.61153,-6.613744 z"
       id="path4543-4"
       inkscape:connector-curvature="0"
       sodipodi:nodetypes="ssssscssscs" />
  </g>
</svg>
